<svg width="220" height="220" viewBox="0 0 17067 17067"><path d="M6889.725,9662.827c54.572,1344.069 -31.767,2941.845 -384.986,3377.95c-362.086,447.053 -1258.901,424.204 -1133.156,-1780.548c106.058,-1859.567 624.18,-3527.151 716.539,-3824.41c165.42,-532.408 -231.785,-1845.165 -456.54,-1953.911c-370.025,-179.035 222.433,-584.417 513.779,-242.149c470.715,552.986 351.291,1277.568 470.531,1056.572c1030.13,-1909.195 2968.718,-1601.124 3612.74,-211.931c15.35,33.11 18.729,250.179 214.493,95.069c208.91,-165.526 1137.829,-992.639 975.75,-1064.21c-357.389,-157.816 -960.957,-346.625 -604.586,-484.982c2042.568,-793.004 2038.348,-814.344 2227.72,-832.719c156.34,-15.17 84.949,111.169 -654.416,2424.51c-156.637,490.09 -458.078,-792.487 -577.485,-655.903c-840.137,960.995 -1367.436,1157.929 -1361.364,1259.245c4.59,76.593 151.171,829.841 -252.148,1759.317c-929.716,2142.594 -3917.869,1519.833 -2706.092,-208.56c507.324,-723.611 2058.479,-1427.741 2063.289,-1549.151c17.197,-434.015 -770.413,-2016.324 -2063.301,-842.978c-136.396,123.785 -788.109,937.644 -761.5,1558.022c7.291,169.992 34.138,166.697 160.73,2120.766Zm-583.416,-854.707c0.317,-21.243 3.762,-252.224 -16.223,-265.074c-63.902,-41.09 -406.563,1979.104 -441.266,2771.393c-29.798,680.287 127.878,1700.989 294.69,1261.434c371.974,-980.162 180.486,-3431.121 162.799,-3767.753Zm3303.538,-1320.389c-1.963,-22.462 68.305,-195.57 -98.288,-92.448c-636.113,393.756 -1511.348,889.698 -1748.349,1471.931c-318.165,781.627 1523.135,1081.256 1846.637,-1379.483Z" fill="#E08A3C"></path></svg>
